<svg version="1.2" xmlns="http://www.w3.org/2000/svg" xmlns:xlink="http://www.w3.org/1999/xlink" overflow="visible" preserveAspectRatio="none" viewBox="0 0 342 52" width="342" height="52"><g transform="translate(1, 1)"><defs><path id="path-156900262521913" d="M0 6.000000000000001 C0 2.6862915012000004 2.6862915012000004 0 6.000000000000001 0 C6.000000000000001 0 334.00000000000017 0 334.00000000000017 0 C337.31370849880017 0 340.00000000000017 2.6862915012000004 340.00000000000017 6.000000000000001 C340.00000000000017 6.000000000000001 340.00000000000017 44 340.00000000000017 44 C340.00000000000017 47.3137084988 337.31370849880017 50 334.00000000000017 50 C334.00000000000017 50 6.000000000000001 50 6.000000000000001 50 C2.6862915012000004 50 0 47.3137084988 0 44 C0 44 0 6.000000000000001 0 6.000000000000001 Z" vector-effect="non-scaling-stroke"/></defs><g transform="translate(0, 0)"><path d="M0 6.000000000000001 C0 2.6862915012000004 2.6862915012000004 0 6.000000000000001 0 C6.000000000000001 0 334.00000000000017 0 334.00000000000017 0 C337.31370849880017 0 340.00000000000017 2.6862915012000004 340.00000000000017 6.000000000000001 C340.00000000000017 6.000000000000001 340.00000000000017 44 340.00000000000017 44 C340.00000000000017 47.3137084988 337.31370849880017 50 334.00000000000017 50 C334.00000000000017 50 6.000000000000001 50 6.000000000000001 50 C2.6862915012000004 50 0 47.3137084988 0 44 C0 44 0 6.000000000000001 0 6.000000000000001 Z" style="stroke-width: 1; stroke: rgb(186, 186, 186); stroke-linecap: butt; stroke-linejoin: miter; fill: rgb(255, 255, 255); stroke-dasharray: 3;" vector-effect="non-scaling-stroke"/></g></g></svg>